<svg id="Layer_1" xmlns="http://www.w3.org/2000/svg" viewBox="-53.3 526.5 60 23.9">
  <style>
    .st0{fill:#FFFFFF;}
  </style>
  <path class="st0" d="M.7 528.7H-.8v15.7c0 2 .6 3.5 1.7 4.4 1.2 1 2.8 1.5 5.1 1.5h.7V549h-1c-1.7 0-3-.4-3.8-1.2-.8-.7-1.2-1.9-1.2-3.6v-9.5h6v-1.3h-6v-4.7zm-37 6.4c-1.3 1.4-2 3.4-2 5.9v9.4h3.1v-9.9c0-1.3.4-2.5 1.3-3.3.7-.9 1.7-1.3 3-1.3 1.2 0 2.3.4 3.1 1.3.8.8 1.2 2 1.2 3.3v9.9h3V541c0-2.5-.7-4.5-1.9-5.9-1.4-1.4-3.2-2.2-5.4-2.2-2.3 0-4 .8-5.4 2.2zm17-6.4c0-.3-.1-.5-.3-.7-.2-.3-.5-.3-.8-.3s-.5 0-.8.3c-.1.2-.2.4-.2.7s.1.5.3.8c.2.2.4.2.7.2s.6 0 .8-.2c.2-.3.3-.5.3-.8zm-.4 4.8h-1.4v16.8h1.4v-16.8zm4.2 6.8c0-1.7.5-3.2 1.5-4.3s2.3-1.6 4-1.6c1.6 0 2.9.5 3.9 1.6s1.5 2.6 1.5 4.3v10h1.4v-9.6c0-2.3-.6-4.2-1.8-5.6-1.3-1.4-2.9-2-5-2-2.2 0-3.8.6-5.1 2-1.2 1.4-1.8 3.3-1.8 5.6v9.6h1.4v-10zm-34.7-11.6h-3.1v15.2c0 2.2.6 3.8 1.9 4.8 1.2 1.1 3 1.6 5.4 1.6h1.1v-2.9h-1c-1.5 0-2.6-.3-3.3-1-.6-.6-1-1.6-1-3V536h5.3v-2.9h-5.3v-4.4zm7-1.7c-.4.3-.6.8-.6 1.3s.2 1 .6 1.4c.3.3.8.5 1.3.5s1-.2 1.3-.5c.4-.4.5-.9.5-1.4 0-.6-.1-1-.5-1.3-.3-.3-.8-.5-1.3-.5s-1 .2-1.3.5zm2.7 6.2h-3v17.1h3v-17.1z"/>
</svg>
